<svg width="120" height="40" viewBox="0 0 120 40" fill="none" xmlns="http://www.w3.org/2000/svg">
	<path d="M55.3522 9.69828C55.3175 9.05594 55.0774 8.56983 54.6318 8.23998C54.1862 7.91013 53.5323 7.7452 52.67 7.7452C51.773 7.7452 51.0699 7.93327 50.5607 8.30942C50.0572 8.67979 49.8055 9.18325 49.8055 9.81981C49.8055 10.3348 49.9762 10.7341 50.3176 11.0177C50.6591 11.2955 51.3651 11.5588 52.4356 11.8076C53.512 12.0565 54.4234 12.3024 55.17 12.5454C55.9165 12.7885 56.4981 13.1646 56.9147 13.6739C57.3314 14.1774 57.5397 14.8313 57.5397 15.6357C57.5397 16.8451 57.0767 17.8144 56.1508 18.5436C55.2249 19.2727 54.0068 19.6373 52.4964 19.6373C50.9513 19.6373 49.7737 19.3046 48.9635 18.6391C48.1533 17.9736 47.7482 17.0245 47.7482 15.7919V15.5836H49.5972C49.5972 16.4805 49.8576 17.1287 50.3784 17.528C50.8992 17.9273 51.6689 18.1269 52.6874 18.1269C53.6249 18.1269 54.3598 17.9157 54.8922 17.4933C55.4246 17.0708 55.6908 16.5182 55.6908 15.8353C55.6908 15.1756 55.4333 14.6982 54.9182 14.403C54.409 14.1021 53.3644 13.7781 51.7846 13.4308C50.2048 13.0778 49.166 12.6149 48.6684 12.042C48.1707 11.4633 47.9219 10.7833 47.9219 10.0021C47.9219 8.87365 48.3732 7.968 49.276 7.28514C50.1845 6.5965 51.3622 6.25217 52.8089 6.25217C54.1573 6.25217 55.2192 6.54731 55.9946 7.13757C56.7758 7.72205 57.178 8.57562 57.2012 9.69828H55.3522ZM62.0361 6.49523V14.6721C62.0361 15.7427 62.3428 16.5674 62.9563 17.146C63.5697 17.7247 64.4377 18.0141 65.5604 18.0141C66.6715 18.0141 67.5221 17.7276 68.1124 17.1547C68.7084 16.5818 69.0065 15.6906 69.0065 14.4812V6.49523H70.7339V14.5333C70.7339 16.0899 70.2564 17.3254 69.3016 18.2398C68.3526 19.1483 67.0997 19.6026 65.543 19.6026C64.484 19.6026 63.5234 19.3885 62.6611 18.9602C61.7989 18.5262 61.1826 17.9591 60.8122 17.2589C60.4418 16.5587 60.2567 15.6212 60.2567 14.4464V6.49523H62.0361ZM76.6018 6.49523L82.9124 17.1113V6.49523H84.553V19.3335H82.2788L75.7511 8.43963V19.3335H74.1366V6.49523H76.6018ZM90.4383 6.49523L96.7489 17.1113V6.49523H98.3895V19.3335H96.1153L89.5876 8.43963V19.3335H87.9731V6.49523H90.4383ZM102.443 6.49523L106.237 12.7885L110.073 6.49523H112.061L107.053 14.377V19.3335H105.256V14.2815L100.238 6.49523H102.443ZM53.1474 24.4952C54.2527 24.4952 55.0629 24.6399 55.5779 24.9292C56.0988 25.2186 56.4923 25.6063 56.7585 26.0924C57.0305 26.5727 57.1664 27.1196 57.1664 27.733C57.1664 28.439 56.9928 29.0351 56.6456 29.5212C56.3042 30.0015 55.7544 30.3718 54.9964 30.6322C55.8818 30.8753 56.5299 31.263 56.9408 31.7954C57.3516 32.322 57.5571 33.002 57.5571 33.8353C57.5571 34.8017 57.2243 35.6264 56.5588 36.3092C55.8991 36.9921 54.8806 37.3335 53.5033 37.3335H48.4427V24.4952H53.1474ZM52.7221 29.9205C53.6075 29.9205 54.2614 29.7469 54.6839 29.3996C55.1063 29.0466 55.3175 28.5461 55.3175 27.8979C55.3175 27.2266 55.1237 26.7348 54.7359 26.4223C54.3482 26.1098 53.7493 25.9535 52.9391 25.9535H50.1614V29.9205H52.7221ZM53.2603 35.8926C54.001 35.8926 54.5971 35.69 55.0484 35.2849C55.4998 34.8798 55.7255 34.3417 55.7255 33.6704C55.7255 33.0107 55.5027 32.4754 55.0571 32.0645C54.6115 31.6536 54.0242 31.4482 53.295 31.4482H50.1614V35.8926H53.2603ZM65.0569 24.4952C66.3821 24.4952 67.3861 24.7961 68.069 25.398C68.7519 25.9998 69.0933 26.7724 69.0933 27.7156C69.0933 28.4795 68.8763 29.1392 68.4423 29.6948C68.014 30.2503 67.4266 30.6265 66.6801 30.8232C67.3225 30.9968 67.7941 31.263 68.095 31.6218C68.4017 31.9806 68.6101 32.756 68.72 33.9482C68.83 35.1345 69.0672 36.2629 69.4318 37.3335H67.5308C67.4556 37.1483 67.3804 36.8532 67.3051 36.4481C67.2299 36.0372 67.1431 35.4643 67.0447 34.7294L66.8885 33.5662C66.7901 32.7908 66.5586 32.2584 66.194 31.969C65.8295 31.6797 65.1148 31.535 64.05 31.535H61.8972V37.3335H60.1351V24.4952H65.0569ZM64.7271 30.0246C65.7224 30.0246 66.3879 29.8365 66.7235 29.4604C67.0592 29.0842 67.227 28.6213 67.227 28.0715C67.227 27.3887 67.0273 26.8708 66.6281 26.5178C66.2345 26.1648 65.6067 25.9882 64.7444 25.9882H61.8625V30.0246H64.7271ZM77.9299 24.4952L83.1208 37.3335H81.185L79.7962 33.9916H73.8414L72.4526 37.3335H70.621L76.0289 24.4952H77.9299ZM74.4143 32.5506H79.2667L76.8969 26.2573L74.4143 32.5506ZM86.6537 24.4952V37.3335H84.8742V24.4952H86.6537ZM91.6709 24.4952V35.7537H97.643V37.3335H89.9088V24.4952H91.6709ZM101.567 24.4952V35.7537H107.539V37.3335H99.8044V24.4952H101.567ZM117.452 24.4952V26.0056H111.176V30.0073H117.157V31.5003H111.176V35.771H117.599V37.3335H109.405V24.4952H117.452Z" fill="#1F2024" />
	<path d="M20.1907 40.0002C22.2312 40.0002 23.8853 38.3551 23.8853 36.3258C23.8853 34.2965 22.2312 32.6514 20.1907 32.6514C18.1502 32.6514 16.4961 34.2965 16.4961 36.3258C16.4961 38.3551 18.1502 40.0002 20.1907 40.0002Z" fill="#1F2024" />
	<path d="M3.77664 23.6736C5.81711 23.6736 7.47125 22.0285 7.47125 19.9991C7.47125 17.9698 5.81711 16.3247 3.77664 16.3247C1.73616 16.3247 0.0820312 17.9698 0.0820312 19.9991C0.0820312 22.0285 1.73616 23.6736 3.77664 23.6736Z" fill="#1F2024" />
	<path d="M36.6067 23.6736C38.6472 23.6736 40.3013 22.0285 40.3013 19.9991C40.3013 17.9698 38.6472 16.3247 36.6067 16.3247C34.5662 16.3247 32.9121 17.9698 32.9121 19.9991C32.9121 22.0285 34.5662 23.6736 36.6067 23.6736Z" fill="#1F2024" />
	<path fill-rule="evenodd" clip-rule="evenodd" d="M28.5544 20.093C28.5262 22.7598 30.1503 25.1602 32.6344 26.1654C33.8077 26.6399 34.7822 27.1474 35.2945 27.6569C37.3402 29.6909 37.3402 32.989 35.2945 35.0235C33.2493 37.058 29.9331 37.058 27.8874 35.0235C27.3756 34.514 26.8653 33.5448 26.3878 32.3779C25.3771 29.9074 22.9634 28.2916 20.282 28.3202H20.1907H20.0995C17.4181 28.2921 15.0044 29.9074 13.9937 32.3779C13.5166 33.5448 13.0063 34.514 12.4941 35.0235C10.4489 37.058 7.13266 37.058 5.08699 35.0235C3.04132 32.9895 3.04132 29.6914 5.08699 27.6569C5.59927 27.1479 6.57376 26.6404 7.74711 26.1654C10.2312 25.1602 11.8558 22.7598 11.827 20.093V20.0027V19.912C11.8553 17.2452 10.2312 14.8447 7.74711 13.8395C6.57376 13.3651 5.59927 12.8575 5.08699 12.3481C3.04132 10.314 3.04132 7.01594 5.08699 4.98144C7.13216 2.94694 10.4484 2.94694 12.4941 4.98144C13.0058 5.49093 13.5162 6.46009 13.9937 7.62703C15.0044 10.0975 17.4181 11.7133 20.0995 11.6847H20.1907H20.282C22.9634 11.7128 25.3771 10.0975 26.3878 7.62703C26.8648 6.46009 27.3751 5.49093 27.8874 4.98144C29.9326 2.94694 33.2488 2.94694 35.2945 4.98144C37.3402 7.01545 37.3402 10.3136 35.2945 12.3481C34.7822 12.8571 33.8077 13.3646 32.6344 13.8395C30.1503 14.8447 28.5257 17.2452 28.5544 19.912V20.0027V20.093ZM24.9067 20.0019C24.9067 22.5926 22.795 24.6928 20.19 24.6928C17.585 24.6928 15.4733 22.5926 15.4733 20.0019C15.4733 17.4112 17.585 15.311 20.19 15.311C22.795 15.311 24.9067 17.4112 24.9067 20.0019Z" fill="#1F2024" />
	<path d="M20.1907 7.34886C22.2312 7.34886 23.8853 5.70376 23.8853 3.67443C23.8853 1.6451 22.2312 0 20.1907 0C18.1502 0 16.4961 1.6451 16.4961 3.67443C16.4961 5.70376 18.1502 7.34886 20.1907 7.34886Z" fill="#1F2024" />
</svg>
