<svg width="445" height="673" viewBox="0 0 445 673" fill="none" xmlns="http://www.w3.org/2000/svg">
	<path d="M338.266 672.816C372.588 672.816 400.411 645.143 400.411 611.008C400.411 576.872 372.588 549.2 338.266 549.2C303.944 549.2 276.121 576.872 276.121 611.008C276.121 645.143 303.944 672.816 338.266 672.816Z" fill="#F0EAE0" fill-opacity="0.6" />
	<path d="M62.1449 398.242C96.4665 398.242 124.29 370.569 124.29 336.434C124.29 302.298 96.4665 274.625 62.1449 274.625C27.8232 274.625 0 302.298 0 336.434C0 370.569 27.8232 398.242 62.1449 398.242Z" fill="#F0EAE0" fill-opacity="0.6" />
	<path fill-rule="evenodd" clip-rule="evenodd" d="M478.928 337.955C478.453 382.813 505.771 423.192 547.554 440.1C567.29 448.081 583.682 456.618 592.299 465.188C626.708 499.402 626.708 554.88 592.299 589.103C557.898 623.325 502.118 623.325 467.709 589.103C459.1 580.533 450.517 564.23 442.484 544.601C425.483 503.044 384.885 475.865 339.782 476.347H338.247H336.712C291.609 475.874 251.011 503.044 234.01 544.601C225.986 564.23 217.402 580.533 208.786 589.103C174.385 623.325 118.605 623.325 84.1955 589.103C49.7864 554.888 49.7864 499.411 84.1955 465.188C92.8123 456.626 109.204 448.089 128.94 440.1C170.723 423.192 198.05 382.813 197.566 337.955V336.436V334.91C198.042 290.051 170.723 249.673 128.94 232.765C109.204 224.784 92.8123 216.247 84.1955 207.676C49.7864 173.462 49.7864 117.984 84.1955 83.7617C118.596 49.5391 174.376 49.5391 208.786 83.7617C217.394 92.3318 225.978 108.634 234.01 128.263C251.011 169.82 291.609 196.999 336.712 196.518H338.247H339.782C384.885 196.991 425.483 169.82 442.484 128.263C450.508 108.634 459.092 92.3318 467.709 83.7617C502.109 49.5391 557.89 49.5391 592.299 83.7617C626.708 117.976 626.708 173.454 592.299 207.676C583.682 216.238 567.29 224.775 547.554 232.765C505.771 249.673 478.444 290.051 478.928 334.91V336.436V337.955ZM417.566 336.423C417.566 380.003 382.046 415.33 338.229 415.33C294.413 415.33 258.892 380.003 258.892 336.423C258.892 292.844 294.413 257.516 338.229 257.516C382.046 257.516 417.566 292.844 417.566 336.423Z" fill="#F0EAE0" fill-opacity="0.6" />
	<path d="M338.266 123.616C372.588 123.616 400.411 95.9437 400.411 61.8081C400.411 27.6724 372.588 0 338.266 0C303.944 0 276.121 27.6724 276.121 61.8081C276.121 95.9437 303.944 123.616 338.266 123.616Z" fill="#F0EAE0" fill-opacity="0.6" />
</svg>
