<svg width="185" height="20" viewBox="0 0 185 20" fill="none" xmlns="http://www.w3.org/2000/svg">
	<g opacity="0.5">
		<circle cx="162.333" cy="16.4259" r="2.62807" fill="#1F2024" />
		<circle cx="182.372" cy="16.4259" r="2.62807" fill="#1F2024" />
		<circle cx="129.153" cy="16.4259" r="2.62807" fill="#1F2024" />
		<circle cx="142.294" cy="9.527" r="2.62807" fill="#1F2024" />
		<circle cx="162.333" cy="9.527" r="2.62807" fill="#1F2024" />
		<circle cx="182.372" cy="9.527" r="2.62807" fill="#1F2024" />
		<circle cx="169.232" cy="9.527" r="2.62807" fill="#1F2024" />
		<circle cx="142.294" cy="2.62807" r="2.62807" fill="#1F2024" />
		<circle cx="162.333" cy="2.62807" r="2.62807" fill="#1F2024" />
		<circle cx="182.372" cy="2.62807" r="2.62807" fill="#1F2024" />
		<circle cx="2.62807" cy="16.4259" r="2.62807" fill="#1F2024" />
		<circle cx="14.4542" cy="16.4259" r="2.62807" fill="#1F2024" />
		<circle cx="33.8371" cy="16.4259" r="2.62807" fill="#1F2024" />
		<circle cx="53.2179" cy="16.4259" r="2.62807" fill="#1F2024" />
		<circle cx="72.6007" cy="16.4259" r="2.62807" fill="#1F2024" />
		<circle cx="91.9816" cy="16.4259" r="2.62807" fill="#1F2024" />
		<circle cx="40.7355" cy="16.4259" r="2.62807" fill="#1F2024" />
		<circle cx="98.882" cy="16.4259" r="2.62807" fill="#1F2024" />
		<circle cx="14.4542" cy="9.527" r="2.62807" fill="#1F2024" />
		<circle cx="60.1164" cy="9.527" r="2.62807" fill="#1F2024" />
		<circle cx="79.4992" cy="9.527" r="2.62807" fill="#1F2024" />
		<circle cx="98.882" cy="9.527" r="2.62807" fill="#1F2024" />
		<circle cx="33.8371" cy="2.62807" r="2.62807" fill="#1F2024" />
		<circle cx="53.2179" cy="2.62807" r="2.62807" fill="#1F2024" />
		<circle cx="72.6007" cy="2.62807" r="2.62807" fill="#1F2024" />
		<circle cx="91.9816" cy="2.62807" r="2.62807" fill="#1F2024" />
		<circle cx="21.3527" cy="2.62807" r="2.62807" fill="#1F2024" />
		<circle cx="60.1164" cy="2.62807" r="2.62807" fill="#1F2024" />
		<circle cx="79.4992" cy="2.62807" r="2.62807" fill="#1F2024" />
		<circle cx="98.882" cy="2.62807" r="2.62807" fill="#1F2024" />
	</g>
</svg>
