<svg width="105" height="35" viewBox="0 0 105 35" fill="none" xmlns="http://www.w3.org/2000/svg">
<path d="M35.7482 15.5898V3.14566H40.7436C42.0354 3.14566 43.0191 3.44788 43.6947 4.05231C44.3821 4.64489 44.7258 5.40932 44.7258 6.34559C44.7258 7.1278 44.5124 7.75593 44.0858 8.23C43.671 8.69221 43.1613 9.00628 42.5569 9.1722C43.268 9.31442 43.8547 9.66997 44.3169 10.2388C44.7791 10.7959 45.0102 11.4477 45.0102 12.1944C45.0102 13.178 44.6546 13.9899 43.9436 14.6299C43.2325 15.2699 42.2251 15.5898 40.9214 15.5898H35.7482ZM38.0237 8.37222H40.4058C41.0458 8.37222 41.5377 8.22407 41.8814 7.92778C42.2251 7.63149 42.3969 7.21076 42.3969 6.66559C42.3969 6.14412 42.2251 5.73524 41.8814 5.43895C41.5495 5.1308 41.0458 4.97673 40.3703 4.97673H38.0237V8.37222ZM38.0237 13.741H40.5658C41.2414 13.741 41.7629 13.5869 42.1303 13.2788C42.5095 12.9588 42.6991 12.5144 42.6991 11.9455C42.6991 11.3647 42.5036 10.9085 42.1125 10.5766C41.7214 10.2448 41.194 10.0788 40.5303 10.0788H38.0237V13.741ZM46.9632 15.5898V3.14566H51.532C52.5275 3.14566 53.3453 3.31751 53.9853 3.66121C54.6371 3.99305 55.123 4.44934 55.443 5.03007C55.763 5.59894 55.923 6.233 55.923 6.93225C55.923 7.69075 55.7215 8.38407 55.3186 9.0122C54.9275 9.64034 54.3112 10.0966 53.4697 10.3811L56.0475 15.5898H53.4342L51.1231 10.6833H49.2387V15.5898H46.9632ZM49.2387 9.0122H51.3898C52.1483 9.0122 52.7053 8.8285 53.0609 8.4611C53.4164 8.09371 53.5942 7.60779 53.5942 7.00336C53.5942 6.41078 53.4164 5.93671 53.0609 5.58117C52.7172 5.22562 52.1542 5.04784 51.372 5.04784H49.2387V9.0122ZM57.2394 15.5898L61.7904 3.14566H64.3503L68.9014 15.5898H66.4836L65.4881 12.7099H60.6349L59.6216 15.5898H57.2394ZM61.2571 10.9322H64.8659L63.0526 5.75894L61.2571 10.9322ZM70.5044 15.5898V3.14566H72.7799V15.5898H70.5044ZM75.1918 15.5898V3.14566H77.4673V13.8121H82.9783V15.5898H75.1918ZM84.9832 15.5898V3.14566H87.2588V13.8121H92.7697V15.5898H84.9832ZM94.7747 15.5898V3.14566H102.899V4.97673H97.0502V8.39H102.366V10.1677H97.0502V13.7588H102.899V15.5898H94.7747ZM41.3836 32.8032C40.1273 32.8032 39.0488 32.5365 38.1481 32.0032C37.2474 31.458 36.5541 30.7054 36.0682 29.7455C35.5822 28.7736 35.3393 27.6537 35.3393 26.3855C35.3393 25.1174 35.5822 23.9974 36.0682 23.0256C36.5541 22.0538 37.2474 21.2953 38.1481 20.7501C39.0488 20.2049 40.1273 19.9323 41.3836 19.9323C42.8769 19.9323 44.0976 20.3057 45.0458 21.0523C46.0057 21.7871 46.6042 22.8241 46.8413 24.1634H44.3347C44.1806 23.4878 43.8487 22.9604 43.3391 22.5812C42.8414 22.1901 42.1777 21.9945 41.3481 21.9945C40.1984 21.9945 39.2977 22.3856 38.6459 23.1678C37.994 23.95 37.6681 25.0226 37.6681 26.3855C37.6681 27.7485 37.994 28.821 38.6459 29.6032C39.2977 30.3736 40.1984 30.7588 41.3481 30.7588C42.1777 30.7588 42.8414 30.581 43.3391 30.2254C43.8487 29.858 44.1806 29.3544 44.3347 28.7144H46.8413C46.6042 29.9943 46.0057 30.9958 45.0458 31.7188C44.0976 32.4417 42.8769 32.8032 41.3836 32.8032ZM47.8993 32.5898L52.4503 20.1457H55.0103L59.5613 32.5898H57.1436L56.148 29.7099H51.2948L50.2815 32.5898H47.8993ZM51.917 27.9322H55.5258L53.7125 22.7589L51.917 27.9322ZM61.1643 32.5898V20.1457H63.8665L67.8308 28.0388L71.7419 20.1457H74.444V32.5898H72.1685V24.0034L68.7019 30.8121H66.9064L63.4398 24.0034V32.5898H61.1643ZM76.8584 32.5898V20.1457H81.4628C82.4583 20.1457 83.282 20.3116 83.9338 20.6434C84.5857 20.9753 85.0716 21.4316 85.3916 22.0123C85.7116 22.593 85.8716 23.2449 85.8716 23.9678C85.8716 24.6552 85.7175 25.2893 85.4093 25.87C85.1012 26.4389 84.6212 26.9011 83.9694 27.2566C83.3175 27.6003 82.482 27.7722 81.4628 27.7722H79.1339V32.5898H76.8584ZM79.1339 25.9233H81.3205C82.1146 25.9233 82.6835 25.7515 83.0272 25.4078C83.3827 25.0522 83.5605 24.5722 83.5605 23.9678C83.5605 23.3515 83.3827 22.8715 83.0272 22.5278C82.6835 22.1723 82.1146 21.9945 81.3205 21.9945H79.1339V25.9233Z" fill="#FFDF2D"/>
<circle cx="18.661" cy="3.80884" r="1.25839" transform="rotate(30 18.661 3.80884)" fill="#FFDF2D"/>
<circle cx="16.8315" cy="6.98071" r="1.25839" transform="rotate(30 16.8315 6.98071)" fill="#FFDF2D"/>
<circle cx="15.0016" cy="10.1487" r="1.25839" transform="rotate(30 15.0016 10.1487)" fill="#FFDF2D"/>
<circle cx="13.172" cy="13.3147" r="1.25839" transform="rotate(30 13.172 13.3147)" fill="#FFDF2D"/>
<circle cx="11.3422" cy="16.4866" r="1.25839" transform="rotate(30 11.3422 16.4866)" fill="#FFDF2D"/>
<circle cx="9.5126" cy="19.6526" r="1.25839" transform="rotate(30 9.5126 19.6526)" fill="#FFDF2D"/>
<circle cx="7.68277" cy="22.8264" r="1.25839" transform="rotate(30 7.68277 22.8264)" fill="#FFDF2D"/>
<circle cx="5.85318" cy="25.9924" r="1.25839" transform="rotate(30 5.85318 25.9924)" fill="#FFDF2D"/>
<circle cx="4.02359" cy="29.1643" r="1.25839" transform="rotate(30 4.02359 29.1643)" fill="#FFDF2D"/>
<circle cx="2.19376" cy="32.3323" r="1.25839" transform="rotate(30 2.19376 32.3323)" fill="#FFDF2D"/>
<circle cx="11.342" cy="3.81021" r="1.25839" transform="rotate(-30 11.342 3.81021)" fill="#FFDF2D"/>
<circle cx="27.8046" cy="32.3307" r="1.25839" transform="rotate(90 27.8046 32.3307)" fill="#FFDF2D"/>
<circle cx="13.1719" cy="6.98013" r="1.25839" transform="rotate(-30 13.1719 6.98013)" fill="#FFDF2D"/>
<circle cx="24.1452" cy="32.3307" r="1.25839" transform="rotate(90 24.1452 32.3307)" fill="#FFDF2D"/>
<circle cx="20.4858" cy="32.3307" r="1.25839" transform="rotate(90 20.4858 32.3307)" fill="#FFDF2D"/>
<circle cx="16.8311" cy="13.318" r="1.25839" transform="rotate(-30 16.8311 13.318)" fill="#FFDF2D"/>
<circle cx="16.8266" cy="32.3307" r="1.25839" transform="rotate(90 16.8266 32.3307)" fill="#FFDF2D"/>
<circle cx="18.6609" cy="16.4879" r="1.25839" transform="rotate(-30 18.6609 16.4879)" fill="#FFDF2D"/>
<circle cx="13.1671" cy="32.3307" r="1.25839" transform="rotate(90 13.1671 32.3307)" fill="#FFDF2D"/>
<circle cx="20.4905" cy="19.6579" r="1.25839" transform="rotate(-30 20.4905 19.6579)" fill="#FFDF2D"/>
<circle cx="9.50772" cy="32.3307" r="1.25839" transform="rotate(90 9.50772 32.3307)" fill="#FFDF2D"/>
<circle cx="22.3203" cy="22.8278" r="1.25839" transform="rotate(-30 22.3203 22.8278)" fill="#FFDF2D"/>
<circle cx="5.8483" cy="32.3307" r="1.25839" transform="rotate(90 5.8483 32.3307)" fill="#FFDF2D"/>
<circle cx="24.1499" cy="25.9938" r="1.25839" transform="rotate(-30 24.1499 25.9938)" fill="#FFDF2D"/>
<circle cx="25.9797" cy="29.1637" r="1.25839" transform="rotate(-30 25.9797 29.1637)" fill="#FFDF2D"/>
<circle cx="14.8907" cy="24.5455" r="1.25839" fill="#FFDF2D"/>
<circle cx="20.4906" cy="28.6725" r="1.25839" fill="#FFDF2D"/>
<circle cx="27.8093" cy="32.3336" r="1.25839" transform="rotate(-30 27.8093 32.3336)" fill="#FFDF2D"/>
<circle cx="18.5497" cy="26.1568" r="1.25839" transform="rotate(90 18.5497 26.1568)" fill="#FFDF2D"/>
<circle cx="9.5079" cy="28.6725" r="1.25839" fill="#FFDF2D"/>
<circle cx="11.2318" cy="26.1568" r="1.25839" transform="rotate(90 11.2318 26.1568)" fill="#FFDF2D"/>
</svg>
