<svg width="129" height="38" viewBox="0 0 129 38" fill="none" xmlns="http://www.w3.org/2000/svg">
<path d="M61.5581 3.16173C62.6634 3.16173 63.4735 3.3064 63.9886 3.59575C64.5094 3.88509 64.9029 4.27282 65.1691 4.75892C65.4411 5.23923 65.5771 5.7861 65.5771 6.39951C65.5771 7.10551 65.4035 7.70156 65.0563 8.18766C64.7148 8.66798 64.1651 9.03834 63.407 9.29875C64.2924 9.5418 64.9405 9.92953 65.3514 10.4619C65.7623 10.9885 65.9677 11.6685 65.9677 12.5018C65.9677 13.4682 65.635 14.2929 64.9695 14.9757C64.3098 15.6586 63.2913 16 61.914 16H56.8533V3.16173H61.5581ZM61.1327 8.58696C62.0181 8.58696 62.6721 8.41335 63.0945 8.06614C63.5169 7.71314 63.7282 7.21257 63.7282 6.56444C63.7282 5.89315 63.5343 5.40127 63.1466 5.08877C62.7589 4.77628 62.1599 4.62003 61.3498 4.62003H58.572V8.58696H61.1327ZM61.6709 14.5591C62.4116 14.5591 63.0077 14.3565 63.4591 13.9514C63.9105 13.5463 64.1361 13.0082 64.1361 12.3369C64.1361 11.6772 63.9134 11.1419 63.4678 10.731C63.0222 10.3201 62.4348 10.1147 61.7056 10.1147H58.572V14.5591H61.6709ZM73.4675 3.16173C74.7928 3.16173 75.7968 3.46265 76.4796 4.06449C77.1625 4.66633 77.5039 5.43888 77.5039 6.38215C77.5039 7.14602 77.2869 7.80573 76.8529 8.36127C76.4247 8.91682 75.8373 9.29297 75.0908 9.48972C75.7331 9.66333 76.2048 9.92953 76.5057 10.2883C76.8124 10.6471 77.0207 11.4226 77.1307 12.6147C77.2406 13.801 77.4779 14.9294 77.8425 16H75.9415C75.8662 15.8148 75.791 15.5197 75.7158 15.1146C75.6405 14.7037 75.5537 14.1308 75.4554 13.3959L75.2991 12.2327C75.2007 11.4573 74.9693 10.9249 74.6047 10.6355C74.2401 10.3462 73.5254 10.2015 72.4606 10.2015H70.3079V16H68.5458V3.16173H73.4675ZM73.1377 8.69113C74.133 8.69113 74.7985 8.50305 75.1342 8.1269C75.4698 7.75075 75.6376 7.2878 75.6376 6.73804C75.6376 6.05519 75.438 5.53726 75.0387 5.18426C74.6452 4.83125 74.0173 4.65475 73.1551 4.65475H70.2732V8.69113H73.1377ZM86.3405 3.16173L91.5314 16H89.5957L88.2068 12.6581H82.2521L80.8632 16H79.0317L84.4395 3.16173H86.3405ZM82.825 11.2171H87.6773L85.3076 4.92384L82.825 11.2171ZM95.0643 3.16173V16H93.2848V3.16173H95.0643ZM100.082 3.16173V14.4202H106.054V16H98.3195V3.16173H100.082ZM109.977 3.16173V14.4202H115.949V16H108.215V3.16173H109.977ZM125.862 3.16173V4.67211H119.586V8.67377H125.567V10.1668H119.586V14.4375H126.01V16H117.816V3.16173H125.862ZM64.4573 24.6339C64.3589 23.8932 64.0696 23.3376 63.5893 22.9672C63.1148 22.5969 62.4811 22.4117 61.6883 22.4117C60.5135 22.4117 59.6108 22.866 58.98 23.7745C58.355 24.6831 58.0425 25.9938 58.0425 27.7067C58.0425 29.3618 58.3492 30.6147 58.9626 31.4653C59.5761 32.316 60.4788 32.7413 61.6709 32.7413C62.429 32.7413 63.0395 32.562 63.5025 32.2032C63.9712 31.8386 64.2606 31.312 64.3705 30.6233H66.3236C66.1905 31.7402 65.6841 32.6169 64.8045 33.2535C63.9307 33.8843 62.8312 34.1996 61.506 34.1996C59.8046 34.1996 58.4852 33.6239 57.5477 32.4723C56.6103 31.3207 56.1415 29.7379 56.1415 27.7241C56.1415 25.6871 56.6305 24.0552 57.6085 22.8284C58.5865 21.6015 59.9696 20.9881 61.7577 20.9881C63.0135 20.9881 64.0667 21.2919 64.9174 21.8996C65.7738 22.5014 66.2542 23.4128 66.3583 24.6339H64.4573ZM74.4832 21.1617L79.674 34H77.7383L76.3494 30.6581H70.3947L69.0058 34H67.1743L72.5822 21.1617H74.4832ZM70.9676 29.2171H75.8199L73.4502 22.9238L70.9676 29.2171ZM84.6131 21.1617L88.2415 31.7431L91.9567 21.1617H94.8907V34H93.146V22.4464L88.9273 34H87.2433L83.1896 22.5159V34H81.4622V21.1617H84.6131ZM102.772 21.1617C103.936 21.1617 104.772 21.3151 105.281 21.6218C105.796 21.9227 106.204 22.3278 106.505 22.837C106.812 23.3405 106.965 23.9568 106.965 24.686C106.965 25.5135 106.742 26.2137 106.297 26.7866C105.857 27.3595 105.325 27.7559 104.7 27.9758C104.075 28.1899 103.241 28.297 102.2 28.297H99.9948V34H98.2153V21.1617H102.772ZM102.321 26.804C103.276 26.804 103.973 26.6246 104.413 26.2658C104.859 25.907 105.081 25.3572 105.081 24.6165C105.081 23.8989 104.882 23.3839 104.483 23.0714C104.089 22.7589 103.458 22.6027 102.59 22.6027H99.9948V26.804H102.321Z" fill="#1F2024"/>
<path d="M20.2313 7.42676L37.1703 30.0387H3.29234L20.2313 7.42676Z" fill="#1F2024"/>
<path d="M18.026 21.612L32.9664 1.66793L47.9068 21.612H18.026Z" stroke="#1F2024" stroke-width="2"/>
</svg>
