<svg width="422" height="69" viewBox="0 0 422 69" fill="none" xmlns="http://www.w3.org/2000/svg">
<circle cx="2.22272" cy="2.67219" r="1.7718" fill="#FFDF2D"/>
<circle cx="16.6104" cy="2.67219" r="1.7718" fill="#FFDF2D"/>
<circle cx="16.6104" cy="56.9534" r="1.7718" fill="#FFDF2D"/>
<circle cx="30.9984" cy="56.9534" r="1.7718" fill="#FFDF2D"/>
<circle cx="45.3861" cy="2.67219" r="1.7718" fill="#FFDF2D"/>
<circle cx="59.7739" cy="2.67219" r="1.7718" fill="#FFDF2D"/>
<circle cx="59.7739" cy="30.5452" r="1.7718" fill="#FFDF2D"/>
<circle cx="74.1617" cy="30.5452" r="1.7718" fill="#FFDF2D"/>
<circle cx="74.1617" cy="56.9534" r="1.7718" fill="#FFDF2D"/>
<circle cx="88.5494" cy="2.67219" r="1.7718" fill="#FFDF2D"/>
<circle cx="102.937" cy="30.5452" r="1.7718" fill="#FFDF2D"/>
<circle cx="117.325" cy="2.67219" r="1.7718" fill="#FFDF2D"/>
<circle cx="117.325" cy="30.5452" r="1.7718" fill="#FFDF2D"/>
<circle cx="117.325" cy="56.9534" r="1.7718" fill="#FFDF2D"/>
<circle cx="146.101" cy="2.67219" r="1.7718" fill="#FFDF2D"/>
<circle cx="160.488" cy="2.67219" r="1.7718" fill="#FFDF2D"/>
<circle cx="160.488" cy="30.5452" r="1.7718" fill="#FFDF2D"/>
<circle cx="174.876" cy="56.9534" r="1.7718" fill="#FFDF2D"/>
<circle cx="189.264" cy="2.67219" r="1.7718" fill="#FFDF2D"/>
<circle cx="218.039" cy="30.5452" r="1.7718" fill="#FFDF2D"/>
<circle cx="232.427" cy="30.5452" r="1.7718" fill="#FFDF2D"/>
<circle cx="261.203" cy="2.67219" r="1.7718" fill="#FFDF2D"/>
<circle cx="261.203" cy="30.5452" r="1.7718" fill="#FFDF2D"/>
<circle cx="275.591" cy="2.67219" r="1.7718" fill="#FFDF2D"/>
<circle cx="275.591" cy="30.5452" r="1.7718" fill="#FFDF2D"/>
<circle cx="289.978" cy="30.5452" r="1.7718" fill="#FFDF2D"/>
<circle cx="304.366" cy="30.5452" r="1.7718" fill="#FFDF2D"/>
<circle cx="318.754" cy="2.67219" r="1.7718" fill="#FFDF2D"/>
<circle cx="318.754" cy="30.5452" r="1.7718" fill="#FFDF2D"/>
<circle cx="333.142" cy="2.67219" r="1.7718" fill="#FFDF2D"/>
<circle cx="361.917" cy="30.5452" r="1.7718" fill="#FFDF2D"/>
<circle cx="376.305" cy="2.67219" r="1.7718" fill="#FFDF2D"/>
<circle cx="390.693" cy="30.5452" r="1.7718" fill="#FFDF2D"/>
<circle cx="419.468" cy="2.67219" r="1.7718" fill="#FFDF2D"/>
<circle cx="2.22272" cy="7.47687" r="1.7718" fill="#FFDF2D"/>
<circle cx="2.22272" cy="35.3499" r="1.7718" fill="#FFDF2D"/>
<circle cx="16.6104" cy="35.3499" r="1.7718" fill="#FFDF2D"/>
<circle cx="16.6104" cy="61.7562" r="1.7718" fill="#FFDF2D"/>
<circle cx="30.9984" cy="35.3499" r="1.7718" fill="#FFDF2D"/>
<circle cx="45.3861" cy="7.47687" r="1.7718" fill="#FFDF2D"/>
<circle cx="59.7739" cy="35.3499" r="1.7718" fill="#FFDF2D"/>
<circle cx="88.5494" cy="7.47687" r="1.7718" fill="#FFDF2D"/>
<circle cx="88.5494" cy="61.7562" r="1.7718" fill="#FFDF2D"/>
<circle cx="102.937" cy="35.3499" r="1.7718" fill="#FFDF2D"/>
<circle cx="131.713" cy="7.47687" r="1.7718" fill="#FFDF2D"/>
<circle cx="131.713" cy="61.7562" r="1.7718" fill="#FFDF2D"/>
<circle cx="160.488" cy="7.47687" r="1.7718" fill="#FFDF2D"/>
<circle cx="174.876" cy="35.3499" r="1.7718" fill="#FFDF2D"/>
<circle cx="189.264" cy="7.47687" r="1.7718" fill="#FFDF2D"/>
<circle cx="189.264" cy="61.7562" r="1.7718" fill="#FFDF2D"/>
<circle cx="203.652" cy="7.47687" r="1.7718" fill="#FFDF2D"/>
<circle cx="203.652" cy="61.7562" r="1.7718" fill="#FFDF2D"/>
<circle cx="218.039" cy="7.47687" r="1.7718" fill="#FFDF2D"/>
<circle cx="218.039" cy="35.3499" r="1.7718" fill="#FFDF2D"/>
<circle cx="218.039" cy="61.7562" r="1.7718" fill="#FFDF2D"/>
<circle cx="232.427" cy="7.47687" r="1.7718" fill="#FFDF2D"/>
<circle cx="261.203" cy="7.47687" r="1.7718" fill="#FFDF2D"/>
<circle cx="261.203" cy="35.3499" r="1.7718" fill="#FFDF2D"/>
<circle cx="289.978" cy="7.47687" r="1.7718" fill="#FFDF2D"/>
<circle cx="289.978" cy="35.3499" r="1.7718" fill="#FFDF2D"/>
<circle cx="318.754" cy="7.47687" r="1.7718" fill="#FFDF2D"/>
<circle cx="318.754" cy="35.3499" r="1.7718" fill="#FFDF2D"/>
<circle cx="333.142" cy="35.3499" r="1.7718" fill="#FFDF2D"/>
<circle cx="347.529" cy="7.47687" r="1.7718" fill="#FFDF2D"/>
<circle cx="347.529" cy="35.3499" r="1.7718" fill="#FFDF2D"/>
<circle cx="390.693" cy="35.3499" r="1.7718" fill="#FFDF2D"/>
<circle cx="2.22272" cy="12.2816" r="1.7718" fill="#FFDF2D"/>
<circle cx="2.22272" cy="40.1546" r="1.7718" fill="#FFDF2D"/>
<circle cx="2.22272" cy="66.5628" r="1.7718" fill="#FFDF2D"/>
<circle cx="16.6104" cy="40.1546" r="1.7718" fill="#FFDF2D"/>
<circle cx="16.6104" cy="66.5628" r="1.7718" fill="#FFDF2D"/>
<circle cx="30.9984" cy="40.1546" r="1.7718" fill="#FFDF2D"/>
<circle cx="30.9984" cy="66.5628" r="1.7718" fill="#FFDF2D"/>
<circle cx="45.3861" cy="12.2816" r="1.7718" fill="#FFDF2D"/>
<circle cx="45.3861" cy="40.1546" r="1.7718" fill="#FFDF2D"/>
<circle cx="59.7739" cy="12.2816" r="1.7718" fill="#FFDF2D"/>
<circle cx="59.7739" cy="40.1546" r="1.7718" fill="#FFDF2D"/>
<circle cx="59.7739" cy="66.5628" r="1.7718" fill="#FFDF2D"/>
<circle cx="74.1617" cy="12.2816" r="1.7718" fill="#FFDF2D"/>
<circle cx="74.1617" cy="40.1546" r="1.7718" fill="#FFDF2D"/>
<circle cx="88.5494" cy="12.2816" r="1.7718" fill="#FFDF2D"/>
<circle cx="102.937" cy="12.2816" r="1.7718" fill="#FFDF2D"/>
<circle cx="102.937" cy="40.1546" r="1.7718" fill="#FFDF2D"/>
<circle cx="102.937" cy="66.5628" r="1.7718" fill="#FFDF2D"/>
<circle cx="117.325" cy="40.1546" r="1.7718" fill="#FFDF2D"/>
<circle cx="131.713" cy="40.1546" r="1.7718" fill="#FFDF2D"/>
<circle cx="131.713" cy="66.5628" r="1.7718" fill="#FFDF2D"/>
<circle cx="146.101" cy="12.2816" r="1.7718" fill="#FFDF2D"/>
<circle cx="146.101" cy="40.1546" r="1.7718" fill="#FFDF2D"/>
<circle cx="146.101" cy="66.5628" r="1.7718" fill="#FFDF2D"/>
<circle cx="160.488" cy="66.5628" r="1.7718" fill="#FFDF2D"/>
<circle cx="174.876" cy="12.2816" r="1.7718" fill="#FFDF2D"/>
<circle cx="174.876" cy="40.1546" r="1.7718" fill="#FFDF2D"/>
<circle cx="189.264" cy="40.1546" r="1.7718" fill="#FFDF2D"/>
<circle cx="189.264" cy="66.5628" r="1.7718" fill="#FFDF2D"/>
<circle cx="203.652" cy="12.2816" r="1.7718" fill="#FFDF2D"/>
<circle cx="203.652" cy="40.1546" r="1.7718" fill="#FFDF2D"/>
<circle cx="203.652" cy="66.5628" r="1.7718" fill="#FFDF2D"/>
<circle cx="218.039" cy="12.2816" r="1.7718" fill="#FFDF2D"/>
<circle cx="218.039" cy="40.1546" r="1.7718" fill="#FFDF2D"/>
<circle cx="218.039" cy="66.5628" r="1.7718" fill="#FFDF2D"/>
<circle cx="246.815" cy="12.2816" r="1.7718" fill="#FFDF2D"/>
<circle cx="261.203" cy="12.2816" r="1.7718" fill="#FFDF2D"/>
<circle cx="261.203" cy="40.1546" r="1.7718" fill="#FFDF2D"/>
<circle cx="275.591" cy="12.2816" r="1.7718" fill="#FFDF2D"/>
<circle cx="275.591" cy="40.1546" r="1.7718" fill="#FFDF2D"/>
<circle cx="304.366" cy="12.2816" r="1.7718" fill="#FFDF2D"/>
<circle cx="304.366" cy="40.1546" r="1.7718" fill="#FFDF2D"/>
<circle cx="318.754" cy="12.2816" r="1.7718" fill="#FFDF2D"/>
<circle cx="333.142" cy="12.2816" r="1.7718" fill="#FFDF2D"/>
<circle cx="333.142" cy="40.1546" r="1.7718" fill="#FFDF2D"/>
<circle cx="361.917" cy="12.2816" r="1.7718" fill="#FFDF2D"/>
<circle cx="376.305" cy="12.2816" r="1.7718" fill="#FFDF2D"/>
<circle cx="390.693" cy="12.2816" r="1.7718" fill="#FFDF2D"/>
<circle cx="390.693" cy="40.1546" r="1.7718" fill="#FFDF2D"/>
<circle cx="405.081" cy="12.2816" r="1.7718" fill="#FFDF2D"/>
<circle cx="6.92097" cy="30.5452" r="1.7718" fill="#FFDF2D"/>
<circle cx="21.3087" cy="30.5452" r="1.7718" fill="#FFDF2D"/>
<circle cx="35.6965" cy="2.67219" r="1.7718" fill="#FFDF2D"/>
<circle cx="35.6965" cy="30.5452" r="1.7718" fill="#FFDF2D"/>
<circle cx="35.6965" cy="56.9534" r="1.7718" fill="#FFDF2D"/>
<circle cx="50.0843" cy="30.5452" r="1.7718" fill="#FFDF2D"/>
<circle cx="50.0843" cy="56.9534" r="1.7718" fill="#FFDF2D"/>
<circle cx="64.472" cy="2.67219" r="1.7718" fill="#FFDF2D"/>
<circle cx="64.472" cy="56.9534" r="1.7718" fill="#FFDF2D"/>
<circle cx="78.8598" cy="2.67219" r="1.7718" fill="#FFDF2D"/>
<circle cx="78.8598" cy="30.5452" r="1.7718" fill="#FFDF2D"/>
<circle cx="78.8598" cy="56.9534" r="1.7718" fill="#FFDF2D"/>
<circle cx="93.2476" cy="30.5452" r="1.7718" fill="#FFDF2D"/>
<circle cx="107.635" cy="2.67219" r="1.7718" fill="#FFDF2D"/>
<circle cx="107.635" cy="56.9534" r="1.7718" fill="#FFDF2D"/>
<circle cx="122.023" cy="30.5452" r="1.7718" fill="#FFDF2D"/>
<circle cx="136.411" cy="2.67219" r="1.7718" fill="#FFDF2D"/>
<circle cx="136.411" cy="30.5452" r="1.7718" fill="#FFDF2D"/>
<circle cx="136.411" cy="56.9534" r="1.7718" fill="#FFDF2D"/>
<circle cx="150.799" cy="2.67219" r="1.7718" fill="#FFDF2D"/>
<circle cx="150.799" cy="30.5452" r="1.7718" fill="#FFDF2D"/>
<circle cx="150.799" cy="56.9534" r="1.7718" fill="#FFDF2D"/>
<circle cx="165.187" cy="56.9534" r="1.7718" fill="#FFDF2D"/>
<circle cx="179.574" cy="2.67219" r="1.7718" fill="#FFDF2D"/>
<circle cx="179.574" cy="30.5452" r="1.7718" fill="#FFDF2D"/>
<circle cx="193.962" cy="56.9534" r="1.7718" fill="#FFDF2D"/>
<circle cx="208.35" cy="2.67219" r="1.7718" fill="#FFDF2D"/>
<circle cx="208.35" cy="30.5452" r="1.7718" fill="#FFDF2D"/>
<circle cx="208.35" cy="56.9534" r="1.7718" fill="#FFDF2D"/>
<circle cx="222.738" cy="2.67219" r="1.7718" fill="#FFDF2D"/>
<circle cx="222.738" cy="56.9534" r="1.7718" fill="#FFDF2D"/>
<circle cx="251.513" cy="2.67219" r="1.7718" fill="#FFDF2D"/>
<circle cx="251.513" cy="30.5452" r="1.7718" fill="#FFDF2D"/>
<circle cx="280.289" cy="2.67219" r="1.7718" fill="#FFDF2D"/>
<circle cx="280.289" cy="30.5452" r="1.7718" fill="#FFDF2D"/>
<circle cx="309.064" cy="2.67219" r="1.7718" fill="#FFDF2D"/>
<circle cx="309.064" cy="30.5452" r="1.7718" fill="#FFDF2D"/>
<circle cx="337.84" cy="2.67219" r="1.7718" fill="#FFDF2D"/>
<circle cx="337.84" cy="30.5452" r="1.7718" fill="#FFDF2D"/>
<circle cx="366.615" cy="2.67219" r="1.7718" fill="#FFDF2D"/>
<circle cx="381.003" cy="2.67219" r="1.7718" fill="#FFDF2D"/>
<circle cx="381.003" cy="30.5452" r="1.7718" fill="#FFDF2D"/>
<circle cx="395.391" cy="2.67219" r="1.7718" fill="#FFDF2D"/>
<circle cx="409.779" cy="2.67219" r="1.7718" fill="#FFDF2D"/>
<circle cx="6.92097" cy="7.47687" r="1.7718" fill="#FFDF2D"/>
<circle cx="6.92097" cy="35.3499" r="1.7718" fill="#FFDF2D"/>
<circle cx="6.92097" cy="61.7562" r="1.7718" fill="#FFDF2D"/>
<circle cx="21.3087" cy="7.47687" r="1.7718" fill="#FFDF2D"/>
<circle cx="21.3087" cy="35.3499" r="1.7718" fill="#FFDF2D"/>
<circle cx="21.3087" cy="61.7562" r="1.7718" fill="#FFDF2D"/>
<circle cx="35.6965" cy="7.47687" r="1.7718" fill="#FFDF2D"/>
<circle cx="35.6965" cy="35.3499" r="1.7718" fill="#FFDF2D"/>
<circle cx="50.0843" cy="7.47687" r="1.7718" fill="#FFDF2D"/>
<circle cx="50.0843" cy="61.7562" r="1.7718" fill="#FFDF2D"/>
<circle cx="64.472" cy="35.3499" r="1.7718" fill="#FFDF2D"/>
<circle cx="64.472" cy="61.7562" r="1.7718" fill="#FFDF2D"/>
<circle cx="78.8598" cy="7.47687" r="1.7718" fill="#FFDF2D"/>
<circle cx="93.2476" cy="7.47687" r="1.7718" fill="#FFDF2D"/>
<circle cx="93.2476" cy="35.3499" r="1.7718" fill="#FFDF2D"/>
<circle cx="107.635" cy="7.47687" r="1.7718" fill="#FFDF2D"/>
<circle cx="107.635" cy="35.3499" r="1.7718" fill="#FFDF2D"/>
<circle cx="107.635" cy="61.7562" r="1.7718" fill="#FFDF2D"/>
<circle cx="136.411" cy="61.7562" r="1.7718" fill="#FFDF2D"/>
<circle cx="150.799" cy="35.3499" r="1.7718" fill="#FFDF2D"/>
<circle cx="165.187" cy="61.7562" r="1.7718" fill="#FFDF2D"/>
<circle cx="179.574" cy="7.47687" r="1.7718" fill="#FFDF2D"/>
<circle cx="179.574" cy="35.3499" r="1.7718" fill="#FFDF2D"/>
<circle cx="193.962" cy="35.3499" r="1.7718" fill="#FFDF2D"/>
<circle cx="193.962" cy="61.7562" r="1.7718" fill="#FFDF2D"/>
<circle cx="208.35" cy="7.47687" r="1.7718" fill="#FFDF2D"/>
<circle cx="208.35" cy="35.3499" r="1.7718" fill="#FFDF2D"/>
<circle cx="208.35" cy="61.7562" r="1.7718" fill="#FFDF2D"/>
<circle cx="222.738" cy="7.47687" r="1.7718" fill="#FFDF2D"/>
<circle cx="222.738" cy="35.3499" r="1.7718" fill="#FFDF2D"/>
<circle cx="222.738" cy="61.7562" r="1.7718" fill="#FFDF2D"/>
<circle cx="237.125" cy="35.3499" r="1.7718" fill="#FFDF2D"/>
<circle cx="251.513" cy="7.47687" r="1.7718" fill="#FFDF2D"/>
<circle cx="251.513" cy="35.3499" r="1.7718" fill="#FFDF2D"/>
<circle cx="265.901" cy="7.47687" r="1.7718" fill="#FFDF2D"/>
<circle cx="265.901" cy="35.3499" r="1.7718" fill="#FFDF2D"/>
<circle cx="309.064" cy="7.47687" r="1.7718" fill="#FFDF2D"/>
<circle cx="309.064" cy="35.3499" r="1.7718" fill="#FFDF2D"/>
<circle cx="323.452" cy="7.47687" r="1.7718" fill="#FFDF2D"/>
<circle cx="337.84" cy="35.3499" r="1.7718" fill="#FFDF2D"/>
<circle cx="366.615" cy="7.47687" r="1.7718" fill="#FFDF2D"/>
<circle cx="366.615" cy="35.3499" r="1.7718" fill="#FFDF2D"/>
<circle cx="381.003" cy="35.3499" r="1.7718" fill="#FFDF2D"/>
<circle cx="395.391" cy="35.3499" r="1.7718" fill="#FFDF2D"/>
<circle cx="409.779" cy="7.47687" r="1.7718" fill="#FFDF2D"/>
<circle cx="6.92097" cy="12.2816" r="1.7718" fill="#FFDF2D"/>
<circle cx="6.92097" cy="40.1546" r="1.7718" fill="#FFDF2D"/>
<circle cx="21.3087" cy="40.1546" r="1.7718" fill="#FFDF2D"/>
<circle cx="21.3087" cy="66.5628" r="1.7718" fill="#FFDF2D"/>
<circle cx="35.6965" cy="40.1546" r="1.7718" fill="#FFDF2D"/>
<circle cx="35.6965" cy="66.5628" r="1.7718" fill="#FFDF2D"/>
<circle cx="50.0843" cy="12.2816" r="1.7718" fill="#FFDF2D"/>
<circle cx="64.472" cy="12.2816" r="1.7718" fill="#FFDF2D"/>
<circle cx="64.472" cy="40.1546" r="1.7718" fill="#FFDF2D"/>
<circle cx="64.472" cy="66.5628" r="1.7718" fill="#FFDF2D"/>
<circle cx="78.8598" cy="40.1546" r="1.7718" fill="#FFDF2D"/>
<circle cx="93.2476" cy="12.2816" r="1.7718" fill="#FFDF2D"/>
<circle cx="93.2476" cy="66.5628" r="1.7718" fill="#FFDF2D"/>
<circle cx="107.635" cy="12.2816" r="1.7718" fill="#FFDF2D"/>
<circle cx="107.635" cy="40.1546" r="1.7718" fill="#FFDF2D"/>
<circle cx="107.635" cy="66.5628" r="1.7718" fill="#FFDF2D"/>
<circle cx="122.023" cy="40.1546" r="1.7718" fill="#FFDF2D"/>
<circle cx="136.411" cy="66.5628" r="1.7718" fill="#FFDF2D"/>
<circle cx="150.799" cy="12.2816" r="1.7718" fill="#FFDF2D"/>
<circle cx="150.799" cy="40.1546" r="1.7718" fill="#FFDF2D"/>
<circle cx="165.187" cy="66.5628" r="1.7718" fill="#FFDF2D"/>
<circle cx="179.574" cy="12.2816" r="1.7718" fill="#FFDF2D"/>
<circle cx="179.574" cy="40.1546" r="1.7718" fill="#FFDF2D"/>
<circle cx="193.962" cy="66.5628" r="1.7718" fill="#FFDF2D"/>
<circle cx="208.35" cy="12.2816" r="1.7718" fill="#FFDF2D"/>
<circle cx="208.35" cy="66.5628" r="1.7718" fill="#FFDF2D"/>
<circle cx="222.738" cy="12.2816" r="1.7718" fill="#FFDF2D"/>
<circle cx="222.738" cy="40.1546" r="1.7718" fill="#FFDF2D"/>
<circle cx="222.738" cy="66.5628" r="1.7718" fill="#FFDF2D"/>
<circle cx="237.125" cy="12.2816" r="1.7718" fill="#FFDF2D"/>
<circle cx="265.901" cy="12.2816" r="1.7718" fill="#FFDF2D"/>
<circle cx="265.901" cy="40.1546" r="1.7718" fill="#FFDF2D"/>
<circle cx="280.289" cy="12.2816" r="1.7718" fill="#FFDF2D"/>
<circle cx="280.289" cy="40.1546" r="1.7718" fill="#FFDF2D"/>
<circle cx="294.677" cy="12.2816" r="1.7718" fill="#FFDF2D"/>
<circle cx="309.064" cy="40.1546" r="1.7718" fill="#FFDF2D"/>
<circle cx="323.452" cy="12.2816" r="1.7718" fill="#FFDF2D"/>
<circle cx="337.84" cy="12.2816" r="1.7718" fill="#FFDF2D"/>
<circle cx="337.84" cy="40.1546" r="1.7718" fill="#FFDF2D"/>
<circle cx="352.228" cy="12.2816" r="1.7718" fill="#FFDF2D"/>
<circle cx="352.228" cy="40.1546" r="1.7718" fill="#FFDF2D"/>
<circle cx="381.003" cy="12.2816" r="1.7718" fill="#FFDF2D"/>
<circle cx="395.391" cy="40.1546" r="1.7718" fill="#FFDF2D"/>
<circle cx="409.779" cy="12.2816" r="1.7718" fill="#FFDF2D"/>
</svg>
