<svg width="87" height="128" viewBox="0 0 87 128" fill="none" xmlns="http://www.w3.org/2000/svg">
	<path d="M86.1109 25.689V104.804C86.1109 106.631 84.6262 108.122 82.7858 108.122H4.32513C2.49364 108.122 1 106.64 1 104.804V4.31789C1 2.48152 2.48475 1 4.32513 1H56.8871C57.6606 1 58.4074 1.26614 59.0031 1.76294L84.9018 23.1341C85.6664 23.7639 86.1109 24.7043 86.1109 25.689Z" fill="#F0EAE0" fill-opacity="0.6" stroke="#1F2024" stroke-miterlimit="10" />
	<path d="M85.9689 24.7038H59.9453C58.8407 24.7038 57.9453 23.8084 57.9453 22.7038V1.57617" fill="#F0EAE0" fill-opacity="0.6" />
	<path d="M85.9689 24.7038H59.9453C58.8407 24.7038 57.9453 23.8084 57.9453 22.7038V1.57617" stroke="#1F2024" stroke-miterlimit="10" />
	<path d="M55.9514 59.7482L70.9844 84.5542H70.9461L71.4221 85.3185C71.6301 85.6526 71.389 86.0994 70.978 86.0994H65.2302H64.7302V86.5994V126.365C64.7302 126.996 64.2261 127.5 63.5953 127.5H47.5398C46.909 127.5 46.4049 126.996 46.4049 126.365V86.5994V86.0994H45.9049H40.0166C39.6176 86.0994 39.3671 85.6596 39.5758 85.3132C39.5759 85.313 39.576 85.3128 39.5761 85.3127L55.056 59.7482C55.2571 59.4174 55.7497 59.4173 55.9511 59.7477C55.9512 59.7478 55.9513 59.748 55.9514 59.7482Z" fill="#1F2024" stroke="black" />
</svg>
