<svg width="87" height="128" viewBox="0 0 87 128" fill="none" xmlns="http://www.w3.org/2000/svg">
<path d="M85.6109 25.689V104.804C85.6109 106.631 84.1262 108.122 82.2858 108.122H3.82513C1.99364 108.122 0.5 106.64 0.5 104.804V4.31789C0.5 2.48152 1.98475 1 3.82513 1H56.3871C57.1606 1 57.9074 1.26614 58.5031 1.76294L84.4018 23.1341C85.1664 23.7639 85.6109 24.7043 85.6109 25.689Z" fill="#E0E0E0" stroke="#1F2024" stroke-miterlimit="10"/>
<path d="M85.4686 24.7038H59.4451C58.3405 24.7038 57.4451 23.8084 57.4451 22.7038V1.57617" fill="#E0E0E0"/>
<path d="M85.4686 24.7038H59.4451C58.3405 24.7038 57.4451 23.8084 57.4451 22.7038V1.57617" stroke="#1F2024" stroke-miterlimit="10"/>
<path d="M55.4514 59.7482L70.4844 84.5542H70.4461L70.9221 85.3185C71.1301 85.6526 70.889 86.0994 70.478 86.0994H64.7302H64.2302V86.5994V126.365C64.2302 126.996 63.7261 127.5 63.0953 127.5H47.0398C46.409 127.5 45.9049 126.996 45.9049 126.365V86.5994V86.0994H45.4049H39.5166C39.1176 86.0994 38.8671 85.6596 39.0758 85.3132C39.0759 85.313 39.076 85.3128 39.0761 85.3127L54.556 59.7482C54.7571 59.4174 55.2497 59.4173 55.4511 59.7477C55.4512 59.7478 55.4513 59.748 55.4514 59.7482Z" fill="#FFDF2D" stroke="black"/>
</svg>
