<svg width="94" height="108" viewBox="0 0 94 108" fill="none" xmlns="http://www.w3.org/2000/svg">
	<g clip-path="url(#clip0_2_29237)">
		<path d="M93.5562 25.1324V104.247C93.5562 106.075 92.0715 107.565 90.2311 107.565H11.7704C9.93895 107.565 8.44531 106.084 8.44531 104.247V3.76125C8.44531 1.92488 9.93006 0.443359 11.7704 0.443359H64.3324C65.1059 0.443359 65.8527 0.7095 66.4484 1.2063L92.3471 22.5774C93.1117 23.2073 93.5562 24.1476 93.5562 25.1324Z" fill="#F0EAE0" fill-opacity="0.6" stroke="#1F2024" stroke-miterlimit="10" />
		<path d="M93.4142 24.1477H67.3906C66.2861 24.1477 65.3906 23.2522 65.3906 22.1477V1.02002" fill="#F0EAE0" fill-opacity="0.6" />
		<path d="M93.4142 24.1477H67.3906C66.2861 24.1477 65.3906 23.2522 65.3906 22.1477V1.02002" stroke="#1F2024" stroke-miterlimit="10" />
	</g>
	<rect x="0.5" y="47.5" width="61" height="26" rx="1.5" fill="#1F2024" stroke="#1F2024" />
	<path d="M19.6794 55.6875H26.4919V56.9375H21.0856V60.7188H25.9762V61.9531H21.0856V67H19.6794V55.6875ZM28.2537 58.5156H29.5975V67H28.2537V58.5156ZM28.9256 57.1094C28.6704 57.1094 28.4491 57.0234 28.2616 56.8516C28.0793 56.6797 27.9881 56.474 27.9881 56.2344C27.9881 55.9844 28.0767 55.7708 28.2537 55.5938C28.436 55.4167 28.6548 55.3281 28.91 55.3281C29.1756 55.3281 29.4022 55.4141 29.5897 55.5859C29.7772 55.7578 29.8735 55.9688 29.8787 56.2188C29.8735 56.4635 29.7772 56.6745 29.5897 56.8516C29.4074 57.0234 29.186 57.1094 28.9256 57.1094ZM32.9219 67H31.5781V55.6875H32.9219V67ZM38.465 67.1719C37.6577 67.1719 36.9546 66.9922 36.3556 66.6328C35.7567 66.2734 35.2957 65.7656 34.9728 65.1094C34.6551 64.4531 34.4963 63.6927 34.4963 62.8281C34.4963 61.9635 34.6551 61.1979 34.9728 60.5312C35.2957 59.8594 35.7463 59.3385 36.3244 58.9688C36.9077 58.5938 37.5796 58.4062 38.34 58.4062C38.9806 58.4062 39.577 58.5495 40.1291 58.8359C40.6811 59.1172 41.1291 59.5755 41.4728 60.2109C41.8218 60.8411 41.9963 61.651 41.9963 62.6406V63.2031H35.84C35.8608 63.7917 35.9832 64.2943 36.2072 64.7109C36.4364 65.1276 36.7436 65.4453 37.1291 65.6641C37.5145 65.8776 37.9598 65.9844 38.465 65.9844C38.9442 65.9844 39.3478 65.8958 39.6759 65.7188C40.0093 65.5365 40.2619 65.3021 40.4338 65.0156H41.8713C41.7358 65.4479 41.5093 65.8281 41.1916 66.1562C40.8791 66.4792 40.4884 66.7292 40.0197 66.9062C39.5561 67.0833 39.0379 67.1719 38.465 67.1719ZM40.6369 62.0625C40.6369 61.5938 40.5405 61.1719 40.3478 60.7969C40.1603 60.4219 39.8921 60.1276 39.5431 59.9141C39.1994 59.7005 38.7983 59.5938 38.34 59.5938C37.866 59.5938 37.4442 59.7057 37.0744 59.9297C36.7098 60.1536 36.4207 60.4557 36.2072 60.8359C35.9989 61.2109 35.8791 61.6198 35.8478 62.0625H40.6369ZM44.5394 67.0938C44.3571 67.0938 44.1878 67.0469 44.0316 66.9531C43.8805 66.8594 43.7581 66.737 43.6644 66.5859C43.5758 66.4297 43.5342 66.2604 43.5394 66.0781C43.5342 65.901 43.5758 65.737 43.6644 65.5859C43.7581 65.4297 43.8805 65.3073 44.0316 65.2188C44.1878 65.125 44.3571 65.0781 44.5394 65.0781C44.7165 65.0781 44.8805 65.1224 45.0316 65.2109C45.1878 65.2995 45.3102 65.4193 45.3988 65.5703C45.4925 65.7214 45.5394 65.8854 45.5394 66.0625C45.5394 66.3438 45.443 66.5859 45.2503 66.7891C45.0576 66.987 44.8206 67.0885 44.5394 67.0938Z" fill="#F0EAE0" />
	<defs>
		<clipPath id="clip0_2_29237">
			<rect width="86" height="108" fill="white" transform="translate(8)" />
		</clipPath>
	</defs>
</svg>
