<svg width="122" height="129" viewBox="0 0 122 129" fill="none" xmlns="http://www.w3.org/2000/svg">
<g clip-path="url(#clip0_31_1403)">
<path d="M94.0553 46.1324V125.247C94.0553 127.075 92.5705 128.565 90.7301 128.565H12.2695C10.438 128.565 8.94434 127.084 8.94434 125.247V24.7612C8.94434 22.9249 10.4291 21.4434 12.2695 21.4434H64.8314C65.6049 21.4434 66.3518 21.7095 66.9474 22.2063L92.8461 43.5774C93.6107 44.2073 94.0553 45.1476 94.0553 46.1324Z" fill="#E0E0E0" stroke="#1F2024" stroke-miterlimit="10"/>
<path d="M93.9132 45.1482H67.8896C66.7851 45.1482 65.8896 44.2527 65.8896 43.1482V22.0205" fill="#E0E0E0"/>
<path d="M93.9132 45.1482H67.8896C66.7851 45.1482 65.8896 44.2527 65.8896 43.1482V22.0205" stroke="#1F2024" stroke-miterlimit="10"/>
</g>
<path d="M2.5 68.5H60.5C61.3284 68.5 62 69.1716 62 70V93C62 93.8284 61.3284 94.5 60.5 94.5H2.5C1.67157 94.5 1 93.8284 1 93V70C1 69.1716 1.67157 68.5 2.5 68.5Z" fill="#1F2024" stroke="#1F2024"/>
<path d="M17.4197 77.9375V76.6875H25.9509V77.9375H22.4041V88H20.9822V77.9375H17.4197ZM28.3847 76.6875L31.2597 81.3594H31.3534L34.2441 76.6875H35.9003L32.3534 82.3438L35.9003 88H34.2441L31.3534 83.4219H31.2597L28.3691 88H26.7128L30.3534 82.3438L26.7128 76.6875H28.3847ZM36.6778 77.9375V76.6875H45.2091V77.9375H41.6622V88H40.2403V77.9375H36.6778ZM47.1741 88.0938C46.6272 88.0938 46.1584 87.6406 46.1741 87.0781C46.1584 86.5312 46.6272 86.0781 47.1741 86.0781C47.7209 86.0781 48.1741 86.5312 48.1741 87.0781C48.1741 87.6406 47.7209 88.0938 47.1741 88.0938Z" fill="white"/>
<g clip-path="url(#clip1_31_1403)">
<path d="M121.5 37.002C116.5 39.2129 115.382 41.0027 114 49.004C112.618 41.0027 111.5 39.2129 106.5 37.002C111.5 34.7911 112.618 33.0014 114 25C115.382 33.0014 116.5 34.7911 121.5 37.002Z" fill="#040000"/>
</g>
<g clip-path="url(#clip2_31_1403)">
<path d="M102.5 21.5014C98.5 23.0675 97.6055 24.3352 96.5 30.0029C95.3945 24.3352 94.5 23.0675 90.5 21.5014C94.5 19.9354 95.3945 18.6676 96.5 13C97.6055 18.6676 98.5 19.9354 102.5 21.5014Z" fill="#040000"/>
</g>
<g clip-path="url(#clip3_31_1403)">
<path d="M114.5 6.5011C111.5 7.69867 110.829 8.66813 110 13.0022C109.171 8.66813 108.5 7.69867 105.5 6.5011C108.5 5.30353 109.171 4.33406 110 0C110.829 4.33406 111.5 5.30353 114.5 6.5011Z" fill="#040000"/>
</g>
<defs>
<clipPath id="clip0_31_1403">
<rect width="86" height="108" fill="white" transform="translate(8.5 21)"/>
</clipPath>
<clipPath id="clip1_31_1403">
<rect width="15" height="24" fill="white" transform="translate(106.5 25)"/>
</clipPath>
<clipPath id="clip2_31_1403">
<rect width="12" height="17" fill="white" transform="translate(90.5 13)"/>
</clipPath>
<clipPath id="clip3_31_1403">
<rect width="9" height="13" fill="white" transform="translate(105.5)"/>
</clipPath>
</defs>
</svg>
