<svg width="121" height="129" viewBox="0 0 121 129" fill="none" xmlns="http://www.w3.org/2000/svg">
	<g clip-path="url(#clip0_2_29317)">
		<path d="M93.5562 46.1324V125.247C93.5562 127.075 92.0715 128.565 90.2311 128.565H11.7704C9.93895 128.565 8.44531 127.084 8.44531 125.247V24.7612C8.44531 22.9249 9.93006 21.4434 11.7704 21.4434H64.3324C65.1059 21.4434 65.8527 21.7095 66.4484 22.2063L92.3471 43.5774C93.1117 44.2073 93.5562 45.1476 93.5562 46.1324Z" fill="#F0EAE0" fill-opacity="0.6" stroke="#1F2024" stroke-miterlimit="10" />
		<path d="M93.4142 45.1477H67.3906C66.2861 45.1477 65.3906 44.2522 65.3906 43.1477V22.02" fill="#F0EAE0" fill-opacity="0.6" />
		<path d="M93.4142 45.1477H67.3906C66.2861 45.1477 65.3906 44.2522 65.3906 43.1477V22.02" stroke="#1F2024" stroke-miterlimit="10" />
	</g>
	<rect x="0.5" y="68.5" width="61" height="26" rx="1.5" fill="#FF6B40" stroke="#1F2024" />
	<path d="M17.4509 76.6875H21.4197C22.1853 76.6875 22.8285 76.8203 23.3494 77.0859C23.8754 77.3464 24.266 77.7031 24.5212 78.1562C24.7817 78.6094 24.9093 79.1198 24.9041 79.6875C24.9093 80.3594 24.7426 80.8854 24.4041 81.2656C24.0655 81.6406 23.6176 81.9062 23.0603 82.0625V82.1719C23.4301 82.1927 23.7895 82.3177 24.1384 82.5469C24.4926 82.776 24.7843 83.1016 25.0134 83.5234C25.2426 83.9401 25.3572 84.4323 25.3572 85C25.352 85.5833 25.214 86.1016 24.9431 86.5547C24.6775 87.0026 24.2608 87.3568 23.6931 87.6172C23.1306 87.8724 22.4197 88 21.5603 88H17.4509V76.6875ZM21.5447 86.75C22.3832 86.75 23.003 86.5885 23.4041 86.2656C23.8051 85.9427 24.003 85.5156 23.9978 84.9844C24.003 84.599 23.9067 84.2448 23.7087 83.9219C23.5108 83.599 23.2296 83.3411 22.865 83.1484C22.5056 82.9557 22.0916 82.8594 21.6228 82.8594H18.8572V86.75H21.5447ZM21.3728 81.6406C21.7791 81.6406 22.1489 81.5625 22.4822 81.4062C22.8155 81.2448 23.0785 81.0182 23.2712 80.7266C23.464 80.4297 23.5603 80.0885 23.5603 79.7031C23.5603 79.3646 23.4822 79.0625 23.3259 78.7969C23.1697 78.5312 22.9301 78.3229 22.6072 78.1719C22.2895 78.0156 21.8936 77.9375 21.4197 77.9375H18.8572V81.6406H21.3728ZM27.1972 76.6875H31.0409C31.9003 76.6875 32.6165 76.8359 33.1894 77.1328C33.7675 77.4245 34.1972 77.8333 34.4784 78.3594C34.7597 78.8802 34.9003 79.4844 34.9003 80.1719C34.9003 80.9427 34.7232 81.6042 34.3691 82.1562C34.0201 82.7031 33.4941 83.099 32.7909 83.3438L35.3378 88H33.6972L31.33 83.6016C31.2727 83.6068 31.1816 83.6094 31.0566 83.6094H28.6034V88H27.1972V76.6875ZM30.9941 82.3281C31.8691 82.3281 32.5045 82.1432 32.9003 81.7734C33.3014 81.4036 33.5045 80.8698 33.5097 80.1719C33.4993 78.6823 32.6555 77.9375 30.9784 77.9375H28.6034V82.3281H30.9941ZM36.7716 76.6875H43.5841V77.9375H38.1778V81.7188H43.0684V82.9531H38.1778V88H36.7716V76.6875ZM45.7678 88.0938C45.5855 88.0938 45.4163 88.0469 45.26 87.9531C45.109 87.8594 44.9866 87.737 44.8928 87.5859C44.8043 87.4297 44.7626 87.2604 44.7678 87.0781C44.7626 86.901 44.8043 86.737 44.8928 86.5859C44.9866 86.4297 45.109 86.3073 45.26 86.2188C45.4163 86.125 45.5855 86.0781 45.7678 86.0781C45.9449 86.0781 46.109 86.1224 46.26 86.2109C46.4163 86.2995 46.5386 86.4193 46.6272 86.5703C46.7209 86.7214 46.7678 86.8854 46.7678 87.0625C46.7678 87.3438 46.6715 87.5859 46.4788 87.7891C46.286 87.987 46.0491 88.0885 45.7678 88.0938Z" fill="#2D3648" />
	<g clip-path="url(#clip1_2_29317)">
		<path d="M121 37.002C116 39.2129 114.882 41.0027 113.5 49.004C112.118 41.0027 111 39.2129 106 37.002C111 34.7911 112.118 33.0014 113.5 25C114.882 33.0014 116 34.7911 121 37.002Z" fill="#040000" />
	</g>
	<g clip-path="url(#clip2_2_29317)">
		<path d="M102 21.5014C98 23.0675 97.1055 24.3352 96 30.0029C94.8945 24.3352 94 23.0675 90 21.5014C94 19.9354 94.8945 18.6676 96 13C97.1055 18.6676 98 19.9354 102 21.5014Z" fill="#040000" />
	</g>
	<g clip-path="url(#clip3_2_29317)">
		<path d="M114 6.5011C111 7.69867 110.329 8.66813 109.5 13.0022C108.671 8.66813 108 7.69867 105 6.5011C108 5.30353 108.671 4.33406 109.5 0C110.329 4.33406 111 5.30353 114 6.5011Z" fill="#040000" />
	</g>
	<defs>
		<clipPath id="clip0_2_29317">
			<rect width="86" height="108" fill="white" transform="translate(8 21)" />
		</clipPath>
		<clipPath id="clip1_2_29317">
			<rect width="15" height="24" fill="white" transform="translate(106 25)" />
		</clipPath>
		<clipPath id="clip2_2_29317">
			<rect width="12" height="17" fill="white" transform="translate(90 13)" />
		</clipPath>
		<clipPath id="clip3_2_29317">
			<rect width="9" height="13" fill="white" transform="translate(105)" />
		</clipPath>
	</defs>
</svg>
