<svg width="95" height="109" viewBox="0 0 95 109" fill="none" xmlns="http://www.w3.org/2000/svg">
<g clip-path="url(#clip0_90_4044)">
<path d="M94.0553 25.2066V104.321C94.0553 106.149 92.5705 107.639 90.7301 107.639H12.2695C10.438 107.639 8.94434 106.158 8.94434 104.321V3.83547C8.94434 1.9991 10.4291 0.517578 12.2695 0.517578H64.8314C65.6049 0.517578 66.3518 0.783719 66.9474 1.28052L92.8461 22.6516C93.6107 23.2815 94.0553 24.2219 94.0553 25.2066Z" fill="#E0E0E0" stroke="#1F2024" stroke-miterlimit="10"/>
<path d="M93.9132 24.2214H67.8896C66.7851 24.2214 65.8896 23.326 65.8896 22.2214V1.09375" fill="#E0E0E0"/>
<path d="M93.9132 24.2214H67.8896C66.7851 24.2214 65.8896 23.326 65.8896 22.2214V1.09375" stroke="#1F2024" stroke-miterlimit="10"/>
</g>
<rect x="1" y="47.5742" width="61" height="26" rx="1.5" fill="#FFDF2D" stroke="#1F2024"/>
<path d="M20.1794 55.7617H26.9919V57.0117H21.5856V60.793H26.4762V62.0273H21.5856V67.0742H20.1794V55.7617ZM28.7537 58.5898H30.0975V67.0742H28.7537V58.5898ZM29.4256 57.1836C29.1704 57.1836 28.9491 57.0977 28.7616 56.9258C28.5793 56.7539 28.4881 56.5482 28.4881 56.3086C28.4881 56.0586 28.5767 55.8451 28.7537 55.668C28.936 55.4909 29.1548 55.4023 29.41 55.4023C29.6756 55.4023 29.9022 55.4883 30.0897 55.6602C30.2772 55.832 30.3735 56.043 30.3787 56.293C30.3735 56.5378 30.2772 56.7487 30.0897 56.9258C29.9074 57.0977 29.686 57.1836 29.4256 57.1836ZM33.4219 67.0742H32.0781V55.7617H33.4219V67.0742ZM38.965 67.2461C38.1577 67.2461 37.4546 67.0664 36.8556 66.707C36.2567 66.3477 35.7957 65.8398 35.4728 65.1836C35.1551 64.5273 34.9963 63.7669 34.9963 62.9023C34.9963 62.0378 35.1551 61.2721 35.4728 60.6055C35.7957 59.9336 36.2463 59.4128 36.8244 59.043C37.4077 58.668 38.0796 58.4805 38.84 58.4805C39.4806 58.4805 40.077 58.6237 40.6291 58.9102C41.1811 59.1914 41.6291 59.6497 41.9728 60.2852C42.3218 60.9154 42.4963 61.7253 42.4963 62.7148V63.2773H36.34C36.3608 63.8659 36.4832 64.3685 36.7072 64.7852C36.9364 65.2018 37.2436 65.5195 37.6291 65.7383C38.0145 65.9518 38.4598 66.0586 38.965 66.0586C39.4442 66.0586 39.8478 65.9701 40.1759 65.793C40.5093 65.6107 40.7619 65.3763 40.9338 65.0898H42.3713C42.2358 65.5221 42.0093 65.9023 41.6916 66.2305C41.3791 66.5534 40.9884 66.8034 40.5197 66.9805C40.0561 67.1576 39.5379 67.2461 38.965 67.2461ZM41.1369 62.1367C41.1369 61.668 41.0405 61.2461 40.8478 60.8711C40.6603 60.4961 40.3921 60.2018 40.0431 59.9883C39.6994 59.7747 39.2983 59.668 38.84 59.668C38.366 59.668 37.9442 59.7799 37.5744 60.0039C37.2098 60.2279 36.9207 60.5299 36.7072 60.9102C36.4989 61.2852 36.3791 61.694 36.3478 62.1367H41.1369ZM45.0394 67.168C44.8571 67.168 44.6878 67.1211 44.5316 67.0273C44.3805 66.9336 44.2581 66.8112 44.1644 66.6602C44.0758 66.5039 44.0342 66.3346 44.0394 66.1523C44.0342 65.9753 44.0758 65.8112 44.1644 65.6602C44.2581 65.5039 44.3805 65.3815 44.5316 65.293C44.6878 65.1992 44.8571 65.1523 45.0394 65.1523C45.2165 65.1523 45.3805 65.1966 45.5316 65.2852C45.6878 65.3737 45.8102 65.4935 45.8988 65.6445C45.9925 65.7956 46.0394 65.9596 46.0394 66.1367C46.0394 66.418 45.943 66.6602 45.7503 66.8633C45.5576 67.0612 45.3206 67.1628 45.0394 67.168Z" fill="#121212"/>
<defs>
<clipPath id="clip0_90_4044">
<rect width="86" height="108" fill="white" transform="translate(8.5 0.0742188)"/>
</clipPath>
</defs>
</svg>
